<svg width="38" height="38" viewBox="0 0 38 38" fill="none" xmlns="http://www.w3.org/2000/svg">
<path d="M19 38C29.4934 38 38 29.4934 38 19C38 8.50659 29.4934 0 19 0C8.50659 0 0 8.50659 0 19C0 29.4934 8.50659 38 19 38Z" fill="#7B7B7B"/>
<path d="M25.2888 14.9349C24.8331 14.6698 24.2407 14.6698 23.7394 14.9349L20.1848 16.9675L17.7695 18.293L14.2149 20.3256C13.7591 20.5907 13.1667 20.5907 12.6654 20.3256L9.83994 18.7349C9.38423 18.4698 9.06524 17.9837 9.06524 17.4535V14.3163C9.06524 13.7861 9.33866 13.3 9.83994 13.0349L12.6198 11.4884C13.0755 11.2233 13.668 11.2233 14.1693 11.4884L16.9492 13.0349C17.4049 13.3 17.7239 13.7861 17.7239 14.3163V16.3489L20.1392 14.9791V12.9465C20.1392 12.4163 19.8658 11.9302 19.3645 11.6651L14.2149 8.74885C13.7591 8.48374 13.1667 8.48374 12.6654 8.74885L7.42463 11.6651C6.92332 11.9302 6.6499 12.4163 6.6499 12.9465V18.8233C6.6499 19.3535 6.92332 19.8395 7.42463 20.1047L12.6654 23.0209C13.1211 23.2861 13.7136 23.2861 14.2149 23.0209L17.7695 21.0326L20.1848 19.6628L23.7394 17.6744C24.1951 17.4093 24.7876 17.4093 25.2888 17.6744L28.0687 19.2209C28.5244 19.4861 28.8435 19.9721 28.8435 20.5024V23.6395C28.8435 24.1698 28.57 24.6558 28.0687 24.9209L25.2888 26.5117C24.8331 26.7768 24.2407 26.7768 23.7394 26.5117L20.9595 24.9651C20.5038 24.7 20.1848 24.214 20.1848 23.6837V21.6512L17.7695 23.0209V25.0535C17.7695 25.5837 18.0429 26.0698 18.5442 26.3349L23.785 29.2512C24.2407 29.5163 24.8331 29.5163 25.3344 29.2512L30.5752 26.3349C31.0309 26.0698 31.3499 25.5837 31.3499 25.0535V19.1768C31.3499 18.6465 31.0765 18.1605 30.5752 17.8953L25.2888 14.9349Z" fill="#EAEAEA"/>
</svg>
