<svg width="56" height="42" viewBox="0 0 56 42" fill="none" xmlns="http://www.w3.org/2000/svg">
<path d="M46.6465 3.48161C43.1345 1.87019 39.3684 0.682914 35.4306 0.00285337C35.3589 -0.0102765 35.2872 0.0225481 35.2503 0.0880896C34.7659 0.9496 34.2294 2.07338 33.8537 2.95674C29.6185 2.32264 25.4049 2.32264 21.2565 2.95674C20.8807 2.0538 20.3247 0.9496 19.8382 0.0880896C19.8013 0.0247005 19.7296 -0.00812402 19.6579 0.00285337C15.7224 0.680654 11.9563 1.86793 8.44202 3.48161C8.41156 3.49474 8.38552 3.51659 8.36819 3.545C1.22471 14.2173 -0.732283 24.6273 0.227701 34.9082C0.232005 34.9584 0.26031 35.0065 0.299376 35.0371C5.01245 38.4983 9.57796 40.5995 14.0586 41.9924C14.1302 42.0142 14.2062 41.988 14.2519 41.929C15.3117 40.4816 16.2565 38.9554 17.0666 37.3504C17.1144 37.2565 17.0687 37.145 16.971 37.1077C15.4724 36.5393 14.0454 35.8461 12.6727 35.0591C12.5641 34.9957 12.5554 34.8404 12.6554 34.766C12.9443 34.5496 13.2332 34.3243 13.5091 34.0969C13.559 34.0554 13.6285 34.0467 13.6872 34.0728C22.705 38.1901 32.4679 38.1901 41.3793 34.0728C41.4379 34.0444 41.5074 34.0532 41.5595 34.0947C41.8355 34.3221 42.1243 34.5495 42.4153 34.7659C42.5152 34.8403 42.5086 34.9956 42.4002 35.0589C41.0274 35.8614 39.6005 36.5392 38.0997 37.1055C38.002 37.1426 37.9585 37.2564 38.0064 37.3503C38.8339 38.953 39.7787 40.4792 40.819 41.9267C40.8625 41.9879 40.9406 42.0142 41.0123 41.9922C45.5146 40.5995 50.0801 38.4982 54.7932 35.037C54.8345 35.0064 54.8606 34.9605 54.8649 34.9102C56.0139 23.0244 52.9405 12.6997 46.7179 3.54704C46.7029 3.51659 46.6768 3.49474 46.6465 3.48161ZM18.4135 28.6481C15.6985 28.6481 13.4614 26.1556 13.4614 23.0944C13.4614 20.0333 15.655 17.5407 18.4135 17.5407C21.1934 17.5407 23.4089 20.0552 23.3655 23.0944C23.3655 26.1556 21.1717 28.6481 18.4135 28.6481ZM36.7228 28.6481C34.0079 28.6481 31.7708 26.1556 31.7708 23.0944C31.7708 20.0333 33.9645 17.5407 36.7228 17.5407C39.5029 17.5407 41.7183 20.0552 41.6749 23.0944C41.6749 26.1556 39.503 28.6481 36.7228 28.6481Z" fill="#3773FE"/>
</svg>
