<svg width="373" height="96" viewBox="0 0 373 96" fill="none" xmlns="http://www.w3.org/2000/svg">
<path d="M152.666 73.2573C148.001 73.2573 143.794 72.2514 140.044 70.2396C136.294 68.184 133.351 65.363 131.215 61.7767C129.078 58.1466 128.01 54.1011 128.01 49.64C128.01 45.179 129.078 41.1553 131.215 37.5689C133.351 33.9389 136.294 31.1179 140.044 29.1061C143.794 27.0505 148.001 26.0227 152.666 26.0227C157.331 26.0227 161.539 27.0505 165.288 29.1061C169.038 31.1179 171.981 33.917 174.118 37.5033C176.254 41.0897 177.322 45.1352 177.322 49.64C177.322 54.1448 176.254 58.1904 174.118 61.7767C171.981 65.363 169.038 68.184 165.288 70.2396C161.539 72.2514 157.331 73.2573 152.666 73.2573ZM152.666 65.7785C155.718 65.7785 158.465 65.1006 160.907 63.7448C163.348 62.3453 165.267 60.4209 166.662 57.9717C168.057 55.4787 168.755 52.7015 168.755 49.64C168.755 46.5785 168.057 43.8232 166.662 41.374C165.267 38.881 163.348 36.9566 160.907 35.6008C158.465 34.2013 155.718 33.5015 152.666 33.5015C149.614 33.5015 146.867 34.2013 144.426 35.6008C141.984 36.9566 140.066 38.881 138.671 41.374C137.275 43.8232 136.578 46.5785 136.578 49.64C136.578 52.7015 137.275 55.4787 138.671 57.9717C140.066 60.4209 141.984 62.3453 144.426 63.7448C146.867 65.1006 149.614 65.7785 152.666 65.7785ZM233.292 72.6013L223.939 59.1525C223.547 59.1963 222.959 59.2181 222.174 59.2181H211.84V72.6013H203.338V26.6787H222.174C226.141 26.6787 229.586 27.3348 232.507 28.6469C235.472 29.9589 237.739 31.8396 239.309 34.2888C240.878 36.738 241.663 39.6464 241.663 43.014C241.663 46.4692 240.813 49.4432 239.112 51.9361C237.456 54.4291 235.058 56.2879 231.918 57.5125L242.448 72.6013H233.292ZM233.096 43.014C233.096 40.0838 232.136 37.8314 230.218 36.2569C228.3 34.6824 225.487 33.8951 221.781 33.8951H211.84V52.1986H221.781C225.487 52.1986 228.3 51.4113 230.218 49.8368C232.136 48.2186 233.096 45.9443 233.096 43.014ZM289.368 73.2573C284.747 73.2573 280.561 72.2514 276.811 70.2396C273.105 68.184 270.184 65.363 268.048 61.7767C265.955 58.1904 264.908 54.1448 264.908 49.64C264.908 45.1352 265.977 41.0897 268.113 37.5033C270.249 33.917 273.171 31.1179 276.877 29.1061C280.626 27.0505 284.812 26.0227 289.434 26.0227C293.183 26.0227 296.606 26.6787 299.701 27.9908C302.797 29.3029 305.413 31.2054 307.549 33.6983L302.056 38.881C298.742 35.2947 294.666 33.5015 289.826 33.5015C286.687 33.5015 283.875 34.2013 281.389 35.6008C278.904 36.9566 276.964 38.8592 275.569 41.3084C274.173 43.7576 273.476 46.5348 273.476 49.64C273.476 52.7453 274.173 55.5225 275.569 57.9717C276.964 60.4209 278.904 62.3453 281.389 63.7448C283.875 65.1006 286.687 65.7785 289.826 65.7785C294.666 65.7785 298.742 63.9635 302.056 60.3334L307.549 65.5817C305.413 68.0746 302.775 69.9771 299.636 71.2892C296.54 72.6013 293.118 73.2573 289.368 73.2573ZM352.647 26.0227C356.746 26.0227 360.321 26.8318 363.373 28.45C366.425 30.0683 368.779 32.4737 370.436 35.6664C372.137 38.8154 372.987 42.6423 372.987 47.1471V72.6013H364.485V60.7926H340.679V72.6013H332.308V47.1471C332.308 42.6423 333.136 38.8154 334.793 35.6664C336.493 32.4737 338.87 30.0683 341.922 28.45C344.974 26.8318 348.549 26.0227 352.647 26.0227ZM364.485 53.6418V46.3598C364.485 42.1175 363.438 38.9248 361.346 36.7817C359.253 34.5949 356.332 33.5015 352.582 33.5015C348.832 33.5015 345.911 34.5949 343.818 36.7817C341.726 38.9248 340.679 42.1175 340.679 46.3598V53.6418H364.485Z" fill="#473A4B"/>
<path d="M95.7025 48C95.7025 74.5098 74.2789 96 47.8513 96C21.4237 96 0 74.5098 0 48C0 21.4903 21.4237 0 47.8513 0C74.2789 0 95.7025 21.4903 95.7025 48Z" fill="#FFD15C"/>
<path d="M24.6743 67.6694C25.0871 67.3882 25.4726 66.9665 25.6644 66.3685C25.8776 65.7037 25.7518 65.1187 25.652 64.7948C25.6487 64.7841 25.6452 64.7732 25.6417 64.7625L25.7213 64.2965C25.9411 64.4205 26.1939 64.5871 26.4824 64.7905C26.5519 64.8395 26.6491 64.909 26.7503 64.9814C26.883 65.0765 27.023 65.1767 27.1163 65.2418C27.2765 65.3536 27.5041 65.5095 27.7452 65.6379C34.1263 69.6163 39.4035 71.2564 43.595 71.0532C47.9284 70.8431 50.9674 68.6563 52.535 65.4651C54.0501 62.3804 54.1029 58.5581 53.041 55.0173C51.9726 51.4535 49.725 47.99 46.375 45.5931C40.73 41.5545 35.5575 35.4136 32.9419 30.192C31.6137 27.5401 31.0852 25.4014 31.2248 24.0049C31.2895 23.355 31.4881 22.9618 31.7255 22.7088C31.9631 22.4556 32.3961 22.1763 33.2301 22.0386C34.9968 21.7466 37.0401 21.1083 39.1138 20.4607C39.9189 20.2092 40.7283 19.9563 41.5281 19.7217C44.5169 18.845 47.681 18.1085 51.0068 18.1148C57.4575 18.1269 65.0278 20.9363 72.9986 32.6231C83.2378 47.636 77.6165 64.4122 65.8207 73.2254C59.9379 77.6206 52.5982 79.9534 45.056 79.0665C38.2649 78.2679 31.1522 74.8396 24.6743 67.6694ZM25.8619 63.7837C25.8619 63.7841 25.8597 63.7885 25.8545 63.7961C25.8591 63.7872 25.8617 63.7835 25.8619 63.7837ZM25.2208 64.0769C25.2206 64.0765 25.2271 64.0771 25.2413 64.0806C25.2282 64.0791 25.2212 64.0776 25.2208 64.0769Z" fill="white" stroke="black" stroke-width="17.6755"/>
<path d="M30.5359 22.8054C30.5359 22.8054 48.8279 17.9194 52.8328 17.9194C56.8377 17.9194 72.8407 25.7147 77.5112 39.9601C84.1319 60.1549 66.1232 73.3963 64.0895 72.0983C83.4642 56.0291 51.7504 26.3266 36.1642 28.5597C34.2159 28.839 35.2983 30.5141 35.2983 30.5141L34.8654 34.857L31.6182 29.4283L30.5359 22.8054Z" fill="black"/>
<path d="M74.8461 33.8853C80.6225 44.0855 79.422 38.2455 78.1397 49.9059C80.5126 46.0552 84.2232 48.9384 85.7556 50.4108C86.0303 50.6748 86.4835 50.5112 86.4706 50.1298C86.4122 48.4003 85.9182 44.6628 83.0639 40.6534C79.1501 35.1551 74.8461 33.8853 74.8461 33.8853Z" fill="black"/>
<path d="M78.1397 49.9059C78.3605 49.3585 78.7054 48.5041 78.7054 48.5041M78.1397 49.9059C79.422 38.2455 80.6225 44.0855 74.8461 33.8853C74.8461 33.8853 79.1501 35.1551 83.0639 40.6534C85.9182 44.6628 86.4122 48.4003 86.4706 50.1298C86.4835 50.5112 86.0303 50.6748 85.7556 50.4108C84.2232 48.9384 80.5126 46.0552 78.1397 49.9059Z" stroke="black" stroke-width="0.993005"/>
<path d="M28.372 48.3505C25.9347 52.4897 20.9343 52.1791 21.03 57.1158C25.4963 67.0699 25.5227 66.3559 25.5227 66.3559C33.7961 61.6939 30.3961 51.3998 29.1686 48.3719C29.0297 48.0297 28.5593 48.0323 28.372 48.3505Z" fill="black"/>
<path d="M9.61815 57.5019C14.3701 58.1238 17.2048 53.9799 21.024 57.095C26.0939 66.7538 25.5166 66.335 25.5166 66.335C16.7608 70.0044 10.7672 60.9793 9.14454 58.1448C8.96112 57.8245 9.25293 57.4542 9.61815 57.5019Z" fill="black"/>
<path d="M49.4773 51.3609C49.4773 51.3609 54.24 56.2473 51.7504 57.0068C48.6461 55.0903 43.0836 56.5797 40.3568 57.5021C39.6856 57.7293 39.0274 57.1316 39.2694 56.4636C40.1966 53.9046 42.486 49.1674 46.8796 48.538C49.4773 47.8861 49.4773 51.3609 49.4773 51.3609Z" fill="black"/>
<path d="M52.3999 27.474C51.8586 26.7141 50.7764 24.6511 54.1317 24.6511C57.4871 24.6511 62.6141 28.4623 63.6566 29.8721C63.3319 30.7313 61.1672 30.9235 60.0848 30.84C59.0025 30.7564 57.1623 30.5778 55.7553 29.8721C54.3481 29.1664 52.9412 28.2342 52.3999 27.474Z" fill="white"/>
</svg>
