<svg width="360" height="99" viewBox="0 0 360 99" fill="none" xmlns="http://www.w3.org/2000/svg">
<path fill-rule="evenodd" clip-rule="evenodd" d="M123.737 60.5844L119.3 52.9182H112.802V60.5844H108.979V37.5654H120.488C121.892 37.5543 123.271 37.9284 124.476 38.6469C125.681 39.3657 126.665 40.4013 127.323 41.6409C127.98 42.8805 128.284 44.2767 128.202 45.6774C128.12 47.0781 127.656 48.4296 126.859 49.5843C126.027 50.8092 124.853 51.762 123.483 52.3239L128.218 60.5844H123.737ZM120.488 41.4726H112.802V49.1172H120.488C120.991 49.1169 121.488 49.0131 121.948 48.8121C122.408 48.6114 122.822 48.3174 123.164 47.9493C123.693 47.412 124.053 46.731 124.198 45.9909C124.343 45.2508 124.267 44.4843 123.979 43.7871C123.692 43.0899 123.206 42.4926 122.581 42.0696C121.957 41.6469 121.221 41.4171 120.467 41.409L120.488 41.4726ZM161.409 37.5654L149.878 60.5844H154.168L161.409 46.1655L168.629 60.5844H172.919L161.409 37.5654ZM209.995 37.5654H205.111L198.549 46.0593L192.009 37.5654H187.103L196.723 49.8393V60.5844H200.545V49.6482L209.995 37.5654ZM229.574 37.5654H237.239C240.285 37.5876 243.2 38.8074 245.353 40.9611C247.507 43.1145 248.727 46.0293 248.749 49.0749C248.732 52.1223 247.514 55.0398 245.359 57.1947C243.205 59.3496 240.287 60.5676 237.239 60.5844H229.574V37.5654ZM237.239 56.6769C239.271 56.6715 241.217 55.8618 242.654 54.4254C244.09 52.989 244.9 51.0426 244.905 49.011C244.883 46.9848 244.068 45.0477 242.636 43.6149C241.203 42.1821 239.266 41.3673 237.239 41.3451H233.375V56.6769H237.239ZM274.295 37.5654H270.473V60.5844H274.295V37.5654ZM315.195 50.9646C315.216 52.2309 314.976 53.4879 314.49 54.6573C314.004 55.8264 313.284 56.883 312.369 57.7599C311.028 59.1015 309.321 60.0147 307.461 60.384C305.598 60.753 303.672 60.5616 301.92 59.8338C300.168 59.106 298.673 57.8745 297.622 56.2956C296.572 54.7167 296.013 52.8612 296.018 50.9646V37.5654H299.841V50.9646C299.841 52.491 300.447 53.9547 301.527 55.0341C302.604 56.1132 304.068 56.7195 305.595 56.7195C307.122 56.7195 308.586 56.1132 309.666 55.0341C310.743 53.9547 311.349 52.491 311.349 50.9646V37.5654H315.195V50.9646ZM340.74 60.5844V46.824L348.447 54.5109L356.115 46.824V60.5844H360V37.5654L348.447 49.0749L336.939 37.5654V60.5844H340.74Z" fill="#473A4B"/>
<path d="M80.5875 36.843V71.0742L42.5127 93.0525L4.41693 71.0742V27.0961L42.5127 5.09643L71.775 21.9997L76.1919 19.4514L42.5127 0L0 24.5479V73.6224L42.5127 98.1702L85.0257 73.6224V34.2948L80.5875 36.843Z" fill="url(#paint0_linear_43_162)"/>
<path d="M31.8526 71.0956H25.4821V49.7329H46.7173C48.7264 49.7107 50.6458 48.8983 52.0606 47.4715C53.4754 46.045 54.2716 44.1187 54.277 42.1093C54.2884 41.116 54.0967 40.1305 53.7133 39.214C53.3296 38.2972 52.7629 37.4689 52.0471 36.7795C51.3547 36.0679 50.5258 35.5036 49.6099 35.1205C48.694 34.7371 47.71 34.543 46.7173 34.5496H25.4821V28.0518H46.7383C50.4598 28.074 54.0226 29.5623 56.6542 32.1937C59.2855 34.8253 60.7738 38.3881 60.796 42.1093C60.8188 44.9581 59.9503 47.7424 58.3117 50.0725C56.8036 52.3021 54.6784 54.0436 52.1959 55.084C49.7377 55.8637 47.1724 56.2507 44.5936 56.2309H31.8526V71.0956Z" fill="url(#paint1_linear_43_162)"/>
<path d="M60.6475 70.5646H53.215L47.4817 60.5629C49.75 60.424 51.9874 59.9665 54.1282 59.2039L60.6475 70.5646Z" fill="url(#paint2_linear_43_162)"/>
<path d="M76.1492 29.7294L80.5448 32.1715L84.9407 29.7294V24.5692L80.5448 22.021L76.1492 24.5692V29.7294Z" fill="url(#paint3_linear_43_162)"/>
<defs>
<linearGradient id="paint0_linear_43_162" x1="84.9504" y1="24.5749" x2="-5.20008" y2="60.6258" gradientUnits="userSpaceOnUse">
<stop stop-color="#C200FB"/>
<stop offset="0.489658" stop-color="#3772FF"/>
<stop offset="0.489758" stop-color="#3773FE"/>
<stop offset="1" stop-color="#5AC4BE"/>
</linearGradient>
<linearGradient id="paint1_linear_43_162" x1="84.9503" y1="24.575" x2="-5.20024" y2="60.6259" gradientUnits="userSpaceOnUse">
<stop stop-color="#C200FB"/>
<stop offset="0.489658" stop-color="#3772FF"/>
<stop offset="0.489758" stop-color="#3773FE"/>
<stop offset="1" stop-color="#5AC4BE"/>
</linearGradient>
<linearGradient id="paint2_linear_43_162" x1="84.9502" y1="24.5749" x2="-5.20029" y2="60.6259" gradientUnits="userSpaceOnUse">
<stop stop-color="#C200FB"/>
<stop offset="0.489658" stop-color="#3772FF"/>
<stop offset="0.489758" stop-color="#3773FE"/>
<stop offset="1" stop-color="#5AC4BE"/>
</linearGradient>
<linearGradient id="paint3_linear_43_162" x1="84.9503" y1="24.575" x2="-5.20022" y2="60.6259" gradientUnits="userSpaceOnUse">
<stop stop-color="#C200FB"/>
<stop offset="0.489658" stop-color="#3772FF"/>
<stop offset="0.489758" stop-color="#3773FE"/>
<stop offset="1" stop-color="#5AC4BE"/>
</linearGradient>
</defs>
</svg>
