<svg width="12" height="10" viewBox="0 0 12 10" fill="none" xmlns="http://www.w3.org/2000/svg">
<path d="M5.93356 0.49638C5.96334 0.445705 6.0366 0.445705 6.06639 0.49638L11.2303 9.27499C11.2605 9.32636 11.2235 9.39114 11.1639 9.39114H9.4914C9.46408 9.39114 9.4388 9.37669 9.42496 9.35314L6.06939 3.64871C6.03972 3.59823 5.96681 3.598 5.93679 3.64829L3.54072 7.6622C3.51009 7.71357 3.54708 7.77877 3.60693 7.77877H6.59791C6.62516 7.77877 6.65036 7.79314 6.66423 7.81661L7.52712 9.2748C7.55753 9.32621 7.52049 9.39114 7.4608 9.39114H0.8361C0.776485 9.39114 0.739453 9.32636 0.769665 9.27499L5.93356 0.49638Z" fill="url(#paint0_linear_42_80)"/>
<defs>
<linearGradient id="paint0_linear_42_80" x1="8.46284" y1="4.31538" x2="0.743614" y2="9.48543" gradientUnits="userSpaceOnUse">
<stop stop-color="#FF9595"/>
<stop offset="0.265625" stop-color="#FFEF5E"/>
<stop offset="0.515625" stop-color="#87FF4F"/>
<stop offset="0.770833" stop-color="#42FFDD"/>
<stop offset="1" stop-color="#9B4DFF"/>
</linearGradient>
</defs>
</svg>
