<svg width="53" height="42" viewBox="0 0 53 42" fill="none" xmlns="http://www.w3.org/2000/svg">
<path d="M52.1379 4.96774C50.1828 5.80645 48.1624 6.3871 46.0117 6.64516C48.2276 5.35484 49.9221 3.29032 50.7041 0.774194C48.6186 2 46.3376 2.83871 43.9262 3.35484C41.971 1.29032 39.1686 0 36.1055 0C30.1748 0 25.4172 4.77419 25.4172 10.5806C25.4172 11.4194 25.4824 12.1935 25.6779 12.9677C16.8145 12.5806 8.99379 8.32258 3.71483 1.93548C-0.065172 8.64516 4.17103 14.1936 6.97345 16.0645C5.27897 16.0645 3.58448 15.5484 2.15069 14.7742C2.15069 20 5.86552 24.3226 10.6883 25.2903C9.64552 25.6129 7.29931 25.8065 5.86552 25.4839C7.23414 29.6774 11.2097 32.7742 15.8369 32.8387C12.1872 35.6774 6.8431 37.9355 0 37.2258C4.75759 40.2581 10.3624 42 16.4234 42C36.1055 42 46.7938 25.871 46.7938 11.9355C46.7938 11.4839 46.7938 11.0323 46.7286 10.5806C48.9445 8.96774 50.7693 7.09678 52.1379 4.96774Z" fill="#3773FE"/>
</svg>
