<svg width="24" height="18" viewBox="0 0 24 18" fill="none" xmlns="http://www.w3.org/2000/svg">
<circle cx="19" cy="9" r="0.999997" fill="white"/>
<path d="M12 8.99999L7.50001 12.4641L7.50001 5.5359L12 8.99999Z" fill="white"/>
<rect x="14.8" y="4.8" width="8.39997" height="8.39997" rx="0.800001" stroke="white" stroke-width="1.6"/>
<path fill-rule="evenodd" clip-rule="evenodd" d="M21.3999 1.6H1.6L1.6 6H0V1.6C0 0.716346 0.716345 0 1.6 0H21.3999C22.2836 0 22.9999 0.716345 22.9999 1.6V4.11629C22.8147 4.0413 22.6121 4 22.4 4H21.3999V1.6ZM0 12V16.3999C0 17.2836 0.716344 17.9999 1.6 17.9999H21.3999C22.2836 17.9999 22.9999 17.2836 22.9999 16.3999V13.8837C22.8147 13.9587 22.6121 14 22.4 14H21.3999V16.3999L1.6 16.3999L1.6 12H0Z" fill="white"/>
<rect y="8" width="7.99998" height="1.99999" fill="white"/>
</svg>
